REM DIRINDEX 1\2\4\8,1\2\4\9,1\2\4\10,1\2\5\11,1\2\5\12,1\2\5\13,1\2\5\14,1\2\5\15,1\3\6\16,1\3\6\17,1\3\6\18,1\3\7\19,1\3\7\20,1\3\7\21,1\3\7\22,1\3\7\23
REM DIRNAME "folder01","folder02","folder03","folder04","folder05","folder06","folder07","folder08","folder09","folder10","folder11","folder12","folder13","folder14","folder15","folder16","folder17","folder18","folder19","folder20","folder21","folder22","folder23"
TITLE ""
FILE "LR_black_phrase_S03.mp3" MP3
  TRACK 01 AUDIO
    TITLE "0:"
    INDEX 01 00:00:00
  TRACK 02 AUDIO
    TITLE "19:cjc171_15201"
    INDEX 01 00:00:10
  TRACK 03 AUDIO
    TITLE "0:"
    INDEX 01 00:01:27
  TRACK 04 AUDIO
    TITLE "20:cjc171_15202"
    INDEX 01 00:01:63
  TRACK 05 AUDIO
    TITLE "0:"
    INDEX 01 00:04:65
  TRACK 06 AUDIO
    TITLE "21:cjc171_15203"
    INDEX 01 00:05:64
  TRACK 07 AUDIO
    TITLE "0:"
    INDEX 01 00:07:73
  TRACK 08 AUDIO
    TITLE "22:cjc171_15204"
    INDEX 01 00:08:31
  TRACK 09 AUDIO
    TITLE "0:"
    INDEX 01 00:10:38
  TRACK 10 AUDIO
    TITLE "23:cjc171_15205"
    INDEX 01 00:10:60
  TRACK 11 AUDIO
    TITLE "0:"
    INDEX 01 00:12:64
  TRACK 12 AUDIO
    TITLE "19:cjc171_15206"
    INDEX 01 00:13:68
  TRACK 13 AUDIO
    TITLE "0:"
    INDEX 01 00:15:22
  TRACK 14 AUDIO
    TITLE "20:cjc171_15207"
    INDEX 01 00:15:59
  TRACK 15 AUDIO
    TITLE "0:"
    INDEX 01 00:18:24
  TRACK 16 AUDIO
    TITLE "21:cjc171_15208"
    INDEX 01 00:19:21
  TRACK 17 AUDIO
    TITLE "0:"
    INDEX 01 00:21:58
  TRACK 18 AUDIO
    TITLE "22:cjc171_15209"
    INDEX 01 00:22:24
  TRACK 19 AUDIO
    TITLE "0:"
    INDEX 01 00:25:12
  TRACK 20 AUDIO
    TITLE "23:cjc171_15210"
    INDEX 01 00:25:40
  TRACK 21 AUDIO
    TITLE "0:"
    INDEX 01 00:28:28
  TRACK 22 AUDIO
    TITLE "19:cjc171_15211"
    INDEX 01 00:29:28
  TRACK 23 AUDIO
    TITLE "0:"
    INDEX 01 00:30:60
  TRACK 24 AUDIO
    TITLE "20:cjc171_15212"
    INDEX 01 00:31:28
  TRACK 25 AUDIO
    TITLE "0:"
    INDEX 01 00:32:57
  TRACK 26 AUDIO
    TITLE "21:cjc171_15213"
    INDEX 01 00:33:57
  TRACK 27 AUDIO
    TITLE "0:"
    INDEX 01 00:35:38
  TRACK 28 AUDIO
    TITLE "22:cjc171_15214"
    INDEX 01 00:35:71
  TRACK 29 AUDIO
    TITLE "0:"
    INDEX 01 00:38:15
  TRACK 30 AUDIO
    TITLE "23:cjc171_15215"
    INDEX 01 00:38:36
  TRACK 31 AUDIO
    TITLE "0:"
    INDEX 01 00:40:55
  TRACK 32 AUDIO
    TITLE "19:cjc171_15216"
    INDEX 01 00:41:52
  TRACK 33 AUDIO
    TITLE "0:"
    INDEX 01 00:43:06
  TRACK 34 AUDIO
    TITLE "20:cjc171_15217"
    INDEX 01 00:43:43
  TRACK 35 AUDIO
    TITLE "0:"
    INDEX 01 00:45:68
  TRACK 36 AUDIO
    TITLE "21:cjc171_15218"
    INDEX 01 00:46:69
  TRACK 37 AUDIO
    TITLE "0:"
    INDEX 01 00:48:45
  TRACK 38 AUDIO
    TITLE "22:cjc171_15219"
    INDEX 01 00:49:03
  TRACK 39 AUDIO
    TITLE "0:"
    INDEX 01 00:51:08
  TRACK 40 AUDIO
    TITLE "23:cjc171_15220"
    INDEX 01 00:51:29
  TRACK 41 AUDIO
    TITLE "0:"
    INDEX 01 00:53:36
  TRACK 42 AUDIO
    TITLE "19:cjc171_15221"
    INDEX 01 00:54:37
  TRACK 43 AUDIO
    TITLE "0:"
    INDEX 01 00:55:54
  TRACK 44 AUDIO
    TITLE "20:cjc171_15222"
    INDEX 01 00:56:21
  TRACK 45 AUDIO
    TITLE "0:"
    INDEX 01 00:59:05
  TRACK 46 AUDIO
    TITLE "21:cjc171_15223"
    INDEX 01 01:00:03
  TRACK 47 AUDIO
    TITLE "0:"
    INDEX 01 01:02:68
  TRACK 48 AUDIO
    TITLE "22:cjc171_15224"
    INDEX 01 01:03:32
  TRACK 49 AUDIO
    TITLE "0:"
    INDEX 01 01:06:70
  TRACK 50 AUDIO
    TITLE "23:cjc171_15225"
    INDEX 01 01:07:24
  TRACK 51 AUDIO
    TITLE "0:"
    INDEX 01 01:10:64
  TRACK 52 AUDIO
    TITLE "19:cjc171_15226"
    INDEX 01 01:11:67
  TRACK 53 AUDIO
    TITLE "0:"
    INDEX 01 01:13:19
  TRACK 54 AUDIO
    TITLE "20:cjc171_15227"
    INDEX 01 01:13:60
  TRACK 55 AUDIO
    TITLE "0:"
    INDEX 01 01:15:41
  TRACK 56 AUDIO
    TITLE "21:cjc171_15228"
    INDEX 01 01:16:41
  TRACK 57 AUDIO
    TITLE "0:"
    INDEX 01 01:20:41
  TRACK 58 AUDIO
    TITLE "22:cjc171_15229"
    INDEX 01 01:21:05
  TRACK 59 AUDIO
    TITLE "0:"
    INDEX 01 01:22:69
  TRACK 60 AUDIO
    TITLE "23:cjc171_15230"
    INDEX 01 01:23:25
  TRACK 61 AUDIO
    TITLE "0:"
    INDEX 01 01:25:12
  TRACK 62 AUDIO
    TITLE "19:cjc171_15231"
    INDEX 01 01:26:20
  TRACK 63 AUDIO
    TITLE "0:"
    INDEX 01 01:27:33
  TRACK 64 AUDIO
    TITLE "20:cjc171_15232"
    INDEX 01 01:27:68
  TRACK 65 AUDIO
    TITLE "0:"
    INDEX 01 01:30:59
  TRACK 66 AUDIO
    TITLE "21:cjc171_15233"
    INDEX 01 01:31:58
  TRACK 67 AUDIO
    TITLE "0:"
    INDEX 01 01:33:20
  TRACK 68 AUDIO
    TITLE "22:cjc171_15234"
    INDEX 01 01:33:59
  TRACK 69 AUDIO
    TITLE "0:"
    INDEX 01 01:36:28
  TRACK 70 AUDIO
    TITLE "23:cjc171_15235"
    INDEX 01 01:36:59
  TRACK 71 AUDIO
    TITLE "0:"
    INDEX 01 01:39:26
  TRACK 72 AUDIO
    TITLE "19:cjc171_15236"
    INDEX 01 01:40:30
  TRACK 73 AUDIO
    TITLE "0:"
    INDEX 01 01:41:53
  TRACK 74 AUDIO
    TITLE "20:cjc171_15237"
    INDEX 01 01:42:13
  TRACK 75 AUDIO
    TITLE "0:"
    INDEX 01 01:43:16
  TRACK 76 AUDIO
    TITLE "21:cjc171_15238"
    INDEX 01 01:44:16
  TRACK 77 AUDIO
    TITLE "0:"
    INDEX 01 01:46:22
  TRACK 78 AUDIO
    TITLE "22:cjc171_15239"
    INDEX 01 01:46:52
  TRACK 79 AUDIO
    TITLE "0:"
    INDEX 01 01:49:52
  TRACK 80 AUDIO
    TITLE "23:cjc171_15240"
    INDEX 01 01:49:74
  TRACK 81 AUDIO
    TITLE "0:"
    INDEX 01 01:53:01
  TRACK 82 AUDIO
    TITLE "19:cjc171_15241"
    INDEX 01 01:54:04
  TRACK 83 AUDIO
    TITLE "0:"
    INDEX 01 01:55:16
  TRACK 84 AUDIO
    TITLE "20:cjc171_15242"
    INDEX 01 01:55:55
  TRACK 85 AUDIO
    TITLE "0:"
    INDEX 01 01:56:66
  TRACK 86 AUDIO
    TITLE "21:cjc171_15243"
    INDEX 01 01:57:63
  TRACK 87 AUDIO
    TITLE "0:"
    INDEX 01 02:00:09
  TRACK 88 AUDIO
    TITLE "22:cjc171_15244"
    INDEX 01 02:00:48
  TRACK 89 AUDIO
    TITLE "0:"
    INDEX 01 02:02:59
  TRACK 90 AUDIO
    TITLE "23:cjc171_15245"
    INDEX 01 02:03:15
  TRACK 91 AUDIO
    TITLE "0:"
    INDEX 01 02:05:26
  TRACK 92 AUDIO
    TITLE "19:cjc171_15246"
    INDEX 01 02:06:33
  TRACK 93 AUDIO
    TITLE "0:"
    INDEX 01 02:07:54
  TRACK 94 AUDIO
    TITLE "20:cjc171_15247"
    INDEX 01 02:08:20
  TRACK 95 AUDIO
    TITLE "0:"
    INDEX 01 02:10:64
  TRACK 96 AUDIO
    TITLE "21:cjc171_15248"
    INDEX 01 02:11:65
  TRACK 97 AUDIO
    TITLE "0:"
    INDEX 01 02:14:42
  TRACK 98 AUDIO
    TITLE "22:cjc171_15249"
    INDEX 01 02:15:10
  TRACK 99 AUDIO
    TITLE "0:"
    INDEX 01 02:17:15
  TRACK 100 AUDIO
    TITLE "23:cjc171_15250"
    INDEX 01 02:17:45
  TRACK 101 AUDIO
    TITLE "0:"
    INDEX 01 02:19:53
  TRACK 102 AUDIO
    TITLE "19:cjc171_15251"
    INDEX 01 02:20:53
  TRACK 103 AUDIO
    TITLE "0:"
    INDEX 01 02:22:01
  TRACK 104 AUDIO
    TITLE "20:cjc171_15252"
    INDEX 01 02:22:34
  TRACK 105 AUDIO
    TITLE "0:"
    INDEX 01 02:24:01
  TRACK 106 AUDIO
    TITLE "21:cjc171_15253"
    INDEX 01 02:25:01
  TRACK 107 AUDIO
    TITLE "0:"
    INDEX 01 02:27:51
  TRACK 108 AUDIO
    TITLE "22:cjc171_15254"
    INDEX 01 02:28:09
  TRACK 109 AUDIO
    TITLE "0:"
    INDEX 01 02:30:59
  TRACK 110 AUDIO
    TITLE "23:cjc171_15255"
    INDEX 01 02:31:03
  TRACK 111 AUDIO
    TITLE "0:"
    INDEX 01 02:33:53
  TRACK 112 AUDIO
    TITLE "19:cjc171_15256"
    INDEX 01 02:34:49
  TRACK 113 AUDIO
    TITLE "0:"
    INDEX 01 02:35:72
  TRACK 114 AUDIO
    TITLE "20:cjc171_15257"
    INDEX 01 02:36:32
  TRACK 115 AUDIO
    TITLE "0:"
    INDEX 01 02:39:64
  TRACK 116 AUDIO
    TITLE "21:cjc171_15258"
    INDEX 01 02:40:61
  TRACK 117 AUDIO
    TITLE "0:"
    INDEX 01 02:42:44
  TRACK 118 AUDIO
    TITLE "22:cjc171_15259"
    INDEX 01 02:43:05
  TRACK 119 AUDIO
    TITLE "0:"
    INDEX 01 02:44:75
  TRACK 120 AUDIO
    TITLE "23:cjc171_15260"
    INDEX 01 02:45:19
  TRACK 121 AUDIO
    TITLE "0:"
    INDEX 01 02:47:14
  TRACK 122 AUDIO
    TITLE "19:cjc171_15261"
    INDEX 01 02:48:16
  TRACK 123 AUDIO
    TITLE "0:"
    INDEX 01 02:49:33
  TRACK 124 AUDIO
    TITLE "20:cjc171_15262"
    INDEX 01 02:49:72
  TRACK 125 AUDIO
    TITLE "0:"
    INDEX 01 02:53:58
  TRACK 126 AUDIO
    TITLE "21:cjc171_15263"
    INDEX 01 02:54:57
  TRACK 127 AUDIO
    TITLE "0:"
    INDEX 01 02:57:50
  TRACK 128 AUDIO
    TITLE "22:cjc171_15264"
    INDEX 01 02:58:16
  TRACK 129 AUDIO
    TITLE "0:"
    INDEX 01 03:00:46
  TRACK 130 AUDIO
    TITLE "23:cjc171_15265"
    INDEX 01 03:01:05
  TRACK 131 AUDIO
    TITLE "0:"
    INDEX 01 03:03:35
  TRACK 132 AUDIO
    TITLE "19:cjc171_15266"
    INDEX 01 03:04:40
  TRACK 133 AUDIO
    TITLE "0:"
    INDEX 01 03:05:73
  TRACK 134 AUDIO
    TITLE "20:cjc171_15267"
    INDEX 01 03:06:37
  TRACK 135 AUDIO
    TITLE "0:"
    INDEX 01 03:08:50
  TRACK 136 AUDIO
    TITLE "21:cjc171_15268"
    INDEX 01 03:09:47
  TRACK 137 AUDIO
    TITLE "0:"
    INDEX 01 03:11:52
  TRACK 138 AUDIO
    TITLE "22:cjc171_15269"
    INDEX 01 03:12:18
  TRACK 139 AUDIO
    TITLE "0:"
    INDEX 01 03:14:58
  TRACK 140 AUDIO
    TITLE "23:cjc171_15270"
    INDEX 01 03:15:09
  TRACK 141 AUDIO
    TITLE "0:"
    INDEX 01 03:17:49
  TRACK 142 AUDIO
    TITLE "19:cjc171_15271"
    INDEX 01 03:18:42
  TRACK 143 AUDIO
    TITLE "0:"
    INDEX 01 03:19:75
  TRACK 144 AUDIO
    TITLE "20:cjc171_15272"
    INDEX 01 03:20:31
  TRACK 145 AUDIO
    TITLE "0:"
    INDEX 01 03:21:56
  TRACK 146 AUDIO
    TITLE "21:cjc171_15273"
    INDEX 01 03:22:58
  TRACK 147 AUDIO
    TITLE "0:"
    INDEX 01 03:24:49
  TRACK 148 AUDIO
    TITLE "22:cjc171_15274"
    INDEX 01 03:25:07
  TRACK 149 AUDIO
    TITLE "0:"
    INDEX 01 03:27:69
  TRACK 150 AUDIO
    TITLE "23:cjc171_15275"
    INDEX 01 03:28:17
  TRACK 151 AUDIO
    TITLE "0:"
    INDEX 01 03:31:02
  TRACK 152 AUDIO
    TITLE "19:cjc171_15276"
    INDEX 01 03:32:01
  TRACK 153 AUDIO
    TITLE "0:"
    INDEX 01 03:33:30
  TRACK 154 AUDIO
    TITLE "20:cjc171_15277"
    INDEX 01 03:33:63
  TRACK 155 AUDIO
    TITLE "0:"
    INDEX 01 03:34:75
  TRACK 156 AUDIO
    TITLE "21:cjc171_15278"
    INDEX 01 03:35:74
  TRACK 157 AUDIO
    TITLE "0:"
    INDEX 01 03:38:31
  TRACK 158 AUDIO
    TITLE "22:cjc171_15279"
    INDEX 01 03:38:66
  TRACK 159 AUDIO
    TITLE "0:"
    INDEX 01 03:41:16
  TRACK 160 AUDIO
    TITLE "23:cjc171_15280"
    INDEX 01 03:41:37
  TRACK 161 AUDIO
    TITLE "0:"
    INDEX 01 03:43:64
  TRACK 162 AUDIO
    TITLE "19:cjc171_15281"
    INDEX 01 03:44:67
  TRACK 163 AUDIO
    TITLE "0:"
    INDEX 01 03:46:11
  TRACK 164 AUDIO
    TITLE "20:cjc171_15282"
    INDEX 01 03:46:52
  TRACK 165 AUDIO
    TITLE "0:"
    INDEX 01 03:49:06
  TRACK 166 AUDIO
    TITLE "21:cjc171_15283"
    INDEX 01 03:50:05
  TRACK 167 AUDIO
    TITLE "0:"
    INDEX 01 03:54:24
  TRACK 168 AUDIO
    TITLE "22:cjc171_15284"
    INDEX 01 03:54:64
  TRACK 169 AUDIO
    TITLE "0:"
    INDEX 01 03:59:06
  TRACK 170 AUDIO
    TITLE "23:cjc171_15285"
    INDEX 01 03:59:35
  TRACK 171 AUDIO
    TITLE "0:"
    INDEX 01 04:03:51
  TRACK 172 AUDIO
    TITLE "19:cjc171_15286"
    INDEX 01 04:04:54
  TRACK 173 AUDIO
    TITLE "0:"
    INDEX 01 04:05:73
  TRACK 174 AUDIO
    TITLE "20:cjc171_15287"
    INDEX 01 04:06:37
  TRACK 175 AUDIO
    TITLE "0:"
    INDEX 01 04:08:56
  TRACK 176 AUDIO
    TITLE "21:cjc171_15288"
    INDEX 01 04:09:55
  TRACK 177 AUDIO
    TITLE "0:"
    INDEX 01 04:11:48
  TRACK 178 AUDIO
    TITLE "22:cjc171_15289"
    INDEX 01 04:12:12
  TRACK 179 AUDIO
    TITLE "0:"
    INDEX 01 04:14:21
  TRACK 180 AUDIO
    TITLE "23:cjc171_15290"
    INDEX 01 04:14:51
  TRACK 181 AUDIO
    TITLE "0:"
    INDEX 01 04:16:59
  TRACK 182 AUDIO
    TITLE "19:cjc171_15291"
    INDEX 01 04:17:57
  TRACK 183 AUDIO
    TITLE "0:"
    INDEX 01 04:19:13
  TRACK 184 AUDIO
    TITLE "20:cjc171_15292"
    INDEX 01 04:19:46
  TRACK 185 AUDIO
    TITLE "0:"
    INDEX 01 04:21:11
  TRACK 186 AUDIO
    TITLE "21:cjc171_15293"
    INDEX 01 04:22:13
  TRACK 187 AUDIO
    TITLE "0:"
    INDEX 01 04:24:59
  TRACK 188 AUDIO
    TITLE "22:cjc171_15294"
    INDEX 01 04:25:17
  TRACK 189 AUDIO
    TITLE "0:"
    INDEX 01 04:28:29
  TRACK 190 AUDIO
    TITLE "23:cjc171_15295"
    INDEX 01 04:28:55
  TRACK 191 AUDIO
    TITLE "0:"
    INDEX 01 04:31:67
  TRACK 192 AUDIO
    TITLE "19:cjc171_15296"
    INDEX 01 04:32:68
  TRACK 193 AUDIO
    TITLE "0:"
    INDEX 01 04:34:16
  TRACK 194 AUDIO
    TITLE "20:cjc171_15297"
    INDEX 01 04:34:49
  TRACK 195 AUDIO
    TITLE "0:"
    INDEX 01 04:35:57
  TRACK 196 AUDIO
    TITLE "21:cjc171_15298"
    INDEX 01 04:36:60
  TRACK 197 AUDIO
    TITLE "0:"
    INDEX 01 04:38:22
  TRACK 198 AUDIO
    TITLE "22:cjc171_15299"
    INDEX 01 04:38:57
  TRACK 199 AUDIO
    TITLE "0:"
    INDEX 01 04:40:68
  TRACK 200 AUDIO
    TITLE "23:cjc171_15300"
    INDEX 01 04:41:12
  TRACK 201 AUDIO
    TITLE "0:"
    INDEX 01 04:43:21
